HIERARCHY
ROOT Hips
{
	OFFSET 0.000000 0.000000 0.000000
	CHANNELS 6 Xposition Yposition Zposition Xrotation Yrotation Zrotation
	JOINT LeftUpLeg_virtual
	{
		OFFSET 0.000000 0.000000 0.000000
		CHANNELS 3 Xrotation Yrotation Zrotation
		JOINT LeftUpLeg
		{
			OFFSET 13.026900 -6.336304 -1.092800
			CHANNELS 3 Xrotation Yrotation Zrotation
			JOINT LeftLeg
			{
				OFFSET 0.524474 -46.096886 9.782700
				CHANNELS 3 Xrotation Yrotation Zrotation
				JOINT LeftFoot
				{
					OFFSET -0.524474 -53.427422 -12.948200
					CHANNELS 3 Xrotation Yrotation Zrotation
					JOINT LeftToeBase
					{
						OFFSET 0.192200 -14.009700 16.364100
						CHANNELS 3 Xrotation Yrotation Zrotation
						JOINT LeftToe_End
						{
							OFFSET -1.784700 -0.561700 9.474800
							CHANNELS 3 Xrotation Yrotation Zrotation
							End Site
							{
								OFFSET 0 0 0
							}
						}
					}
				}
			}
		}
	}
	JOINT RightUpLeg_virtual
	{
		OFFSET 0.000000 0.000000 0.000000
		CHANNELS 3 Xrotation Yrotation Zrotation
		JOINT RightUpLeg
		{
			OFFSET -12.883000 -6.336304 -1.092800
			CHANNELS 3 Xrotation Yrotation Zrotation
			JOINT RightLeg
			{
				OFFSET -0.524587 -46.096825 9.782800
				CHANNELS 3 Xrotation Yrotation Zrotation
				JOINT RightFoot
				{
					OFFSET 0.524587 -53.427383 -12.948300
					CHANNELS 3 Xrotation Yrotation Zrotation
					JOINT RightToeBase
					{
						OFFSET -0.192200 -14.009700 16.364100
						CHANNELS 3 Xrotation Yrotation Zrotation
						JOINT RightToe_End
						{
							OFFSET 1.784700 -0.561700 9.474800
							CHANNELS 3 Xrotation Yrotation Zrotation
							End Site
							{
								OFFSET 0 0 0
							}
						}
					}
				}
			}
		}
	}
	JOINT Spine_virtual
	{
		OFFSET 0.000000 0.000000 0.000000
		CHANNELS 3 Xrotation Yrotation Zrotation
		JOINT Spine
		{
			OFFSET 0.072000 7.257294 -0.789700
			CHANNELS 3 Xrotation Yrotation Zrotation
			JOINT Spine1
			{
				OFFSET 0.000000 12.508769 -0.658067
				CHANNELS 3 Xrotation Yrotation Zrotation
				JOINT Spine1_split
				{
					OFFSET 0.000000 12.508769 -0.658067
					CHANNELS 3 Xrotation Yrotation Zrotation
					JOINT Spine2
					{
						OFFSET 0.000000 12.508769 -0.658067
						CHANNELS 3 Xrotation Yrotation Zrotation
						JOINT Neck_virtual
						{
							OFFSET 0.000000 0.000000 0.000000
							CHANNELS 3 Xrotation Yrotation Zrotation
							JOINT Neck
							{
								OFFSET 0.000000 14.033295 7.520400
								CHANNELS 3 Xrotation Yrotation Zrotation
								JOINT Head
								{
									OFFSET 0.000000 8.198502 5.703100
									CHANNELS 3 Xrotation Yrotation Zrotation
									JOINT HeadTop_End
									{
										OFFSET 0.000000 17.760803 13.332701
										CHANNELS 3 Xrotation Yrotation Zrotation
										End Site
										{
											OFFSET 0 0 0
										}
									}
								}
							}
						}
						JOINT LeftShoulder_virtual
						{
							OFFSET 0.000000 0.000000 0.000000
							CHANNELS 3 Xrotation Yrotation Zrotation
							JOINT LeftShoulder
							{
								OFFSET 6.292450 5.785301 -0.669000
								CHANNELS 3 Xrotation Yrotation Zrotation
								JOINT LeftShoulder_split
								{
									OFFSET 6.292450 5.785301 -0.669000
									CHANNELS 3 Xrotation Yrotation Zrotation
									JOINT LeftArm
									{
										OFFSET 13.907140 -6.093903 1.965100
										CHANNELS 3 Xrotation Yrotation Zrotation
										JOINT LeftForeArm
										{
											OFFSET 34.140198 0.000000 0.000000
											CHANNELS 3 Xrotation Yrotation Zrotation
											JOINT LeftHand
											{
												OFFSET 40.960209 0.000000 0.000000
												CHANNELS 3 Xrotation Yrotation Zrotation
												End Site
												{
													OFFSET 0 0 0
												}
											}
										}
									}
								}
							}
						}
						JOINT RightShoulder_virtual
						{
							OFFSET 0.000000 0.000000 0.000000
							CHANNELS 3 Xrotation Yrotation Zrotation
							JOINT RightShoulder
							{
								OFFSET -6.292450 5.785301 -0.669000
								CHANNELS 3 Xrotation Yrotation Zrotation
								JOINT RightShoulder_split
								{
									OFFSET -6.292450 5.785301 -0.669000
									CHANNELS 3 Xrotation Yrotation Zrotation
									JOINT RightArm
									{
										OFFSET -13.907140 -6.093903 1.965100
										CHANNELS 3 Xrotation Yrotation Zrotation
										JOINT RightForeArm
										{
											OFFSET -34.140198 0.000000 0.000000
											CHANNELS 3 Xrotation Yrotation Zrotation
											JOINT RightHand
											{
												OFFSET -40.960209 0.000000 0.000000
												CHANNELS 3 Xrotation Yrotation Zrotation
												End Site
												{
													OFFSET 0 0 0
												}
											}
										}
									}
								}
							}
						}
					}
				}
			}
		}
	}
}
MOTION
Frames: 6
Frame Time: 0.03333333
15.683700 108.765839 -2.114952 0.000000 0.000000 0.000000 2.775030 -44.830206 3.179683 -18.554665 14.080810 6.858702 34.028983 19.747074 1.274713 -6.331889 15.591324 -15.627116 -1.808513 -0.482747 -1.463450 0.000000 0.000000 0.000000 2.678801 -44.654558 3.421553 -24.590344 -36.910117 -19.219650 31.340992 -7.903935 -4.090739 -10.292847 -3.702556 9.821351 -7.934774 1.670754 3.602805 0.000000 0.000000 0.000000 4.081448 -42.413853 3.399709 10.873516 -7.220980 2.186822 2.955664 -2.122350 -1.956799 -0.253213 -0.149481 0.814176 0.000000 0.000000 0.000000 -7.768528 -3.937541 -0.802550 -9.557759 -4.970870 -4.967077 10.416560 -22.517124 8.072256 0.000000 0.000000 0.000000 -8.826445 -3.970747 -1.168692 -0.895887 2.436043 -6.661719 1.059250 -2.518146 1.555256 9.465745 5.275360 -58.843698 -0.892810 -46.296125 0.194570 0.000000 0.000000 0.000000 -8.949507 -4.336775 -1.172021 -1.038210 -1.199944 5.969259 -3.038560 -3.982879 -2.148446 7.603708 18.290405 71.630188 0.261862 49.723822 1.364462 0.000000 0.000000 0.000000 
15.253531 108.698799 -2.711044 0.000000 0.000000 0.000000 1.813450 -48.296288 2.903324 -17.421313 14.571510 7.406374 35.143915 20.520306 0.787593 -6.200942 16.306505 -15.601189 -1.771419 -0.229535 -1.832792 0.000000 0.000000 0.000000 1.924474 -48.088350 3.168305 -23.149763 -37.185626 -18.922539 29.876941 -8.786089 -4.154634 -10.643538 -5.027593 10.491399 -7.549905 1.762583 2.843895 0.000000 0.000000 0.000000 3.250386 -45.737528 3.154007 10.851761 -7.145052 2.110131 2.697594 -1.914832 -1.778185 -0.259998 -0.323828 0.908151 0.000000 0.000000 0.000000 -7.969098 -3.778199 -0.614468 -9.223942 -4.046924 -5.130855 10.734301 -20.726564 7.592810 0.000000 0.000000 0.000000 -9.060227 -3.771559 -0.998230 -0.827818 2.235376 -6.587168 1.043013 -2.925518 1.709619 8.946687 4.924114 -58.326271 -1.042656 -45.555272 0.166815 0.000000 0.000000 0.000000 -9.152915 -4.155358 -1.018717 -1.262702 -0.433631 5.869675 -3.028210 -3.973032 -2.256916 7.154968 16.943905 71.903287 0.144695 48.211403 1.449822 0.000000 0.000000 0.000000 
14.651738 108.561386 -3.422653 0.000000 0.000000 0.000000 0.786110 -51.555634 2.226555 -17.130292 15.307301 8.537372 36.632091 21.128898 0.283941 -5.625800 16.618904 -15.281870 -1.911968 -0.032586 -2.346898 0.000000 0.000000 0.000000 0.856870 -51.103745 2.406372 -22.139208 -37.116368 -18.396829 28.372396 -9.203203 -4.142045 -10.641524 -5.589505 11.239233 -8.058287 1.855645 2.140915 0.000000 0.000000 0.000000 2.433607 -48.772909 2.643432 10.890783 -6.740769 2.005956 2.489657 -1.789435 -1.533284 -0.215315 -0.515717 0.983606 0.000000 0.000000 0.000000 -8.124215 -3.671072 -0.371005 -8.924935 -3.315188 -5.250535 10.982024 -19.252980 7.074918 0.000000 0.000000 0.000000 -9.227578 -3.650375 -0.755964 -0.782132 1.996502 -6.465392 1.049165 -3.145180 1.714169 8.254116 4.369352 -58.027293 -1.047919 -44.917872 0.270704 0.000000 0.000000 0.000000 -9.328283 -4.036953 -0.790930 -1.453990 0.171988 5.755572 -2.909387 -3.934443 -2.404873 6.599091 15.370079 72.073133 0.049443 46.203108 1.528689 0.000000 0.000000 0.000000 
13.931414 108.438416 -4.081642 0.000000 0.000000 0.000000 -0.264162 -54.385258 1.203457 -17.747278 16.123806 10.142795 38.093922 21.334934 -0.022869 -4.498083 16.273470 -14.839657 -2.680349 0.081708 -2.825589 0.000000 0.000000 0.000000 -0.351684 -53.735653 1.235640 -21.287671 -36.708838 -17.593505 26.877744 -9.186808 -4.098847 -10.522707 -5.503589 12.137937 -9.199521 1.932189 1.569990 0.000000 0.000000 0.000000 1.713655 -51.516333 1.942726 10.970437 -6.076146 1.894097 2.332321 -1.753185 -1.229149 -0.103877 -0.778897 0.971041 0.000000 0.000000 0.000000 -8.224793 -3.630299 -0.074877 -8.674753 -2.769687 -5.352073 11.132529 -18.075006 6.557653 0.000000 0.000000 0.000000 -9.328793 -3.617245 -0.451180 -0.760972 1.712253 -6.337610 1.110995 -3.066885 1.641120 7.503764 3.562241 -57.856128 -0.977209 -44.381814 0.430775 0.000000 0.000000 0.000000 -9.475817 -3.996616 -0.484839 -1.603961 0.606365 5.627985 -2.707433 -3.738959 -2.587649 6.036445 13.617528 72.149542 0.008423 43.831499 1.577428 0.000000 0.000000 0.000000 
13.168855 108.407936 -4.660660 0.000000 0.000000 0.000000 -1.250397 -56.722563 -0.025500 -19.029914 16.820123 11.950752 38.989028 20.834577 0.056233 -3.115331 15.185626 -14.371553 -4.179894 0.106225 -3.116263 0.000000 0.000000 0.000000 -1.457506 -56.081621 -0.082739 -20.064937 -36.017507 -16.326418 25.432713 -9.177865 -4.031653 -10.757978 -5.304812 12.468644 -10.019029 1.963242 1.245277 0.000000 0.000000 0.000000 1.242288 -54.064386 1.245549 11.057346 -5.238111 1.766852 2.207311 -1.775036 -0.882704 0.013733 -1.047307 0.893168 0.000000 0.000000 0.000000 -8.294319 -3.637665 0.262337 -8.442753 -2.399183 -5.506019 11.209066 -17.171123 6.078526 0.000000 0.000000 0.000000 -9.370804 -3.654698 -0.103708 -0.767627 1.439873 -6.244684 1.227632 -2.641848 1.449372 6.790997 2.449342 -57.734742 -0.903983 -43.860852 0.575028 0.000000 0.000000 0.000000 -9.588327 -4.017983 -0.122785 -1.696985 0.877069 5.507625 -2.508018 -3.404514 -2.789448 5.561226 11.734818 72.160375 0.039878 41.218764 1.584150 0.000000 0.000000 0.000000 
12.345204 108.522675 -5.082020 0.000000 0.000000 0.000000 -1.897740 -58.589820 -1.133881 -20.752797 17.458928 13.686039 39.054024 19.770013 0.381823 -2.324355 13.543991 -13.396480 -5.640104 0.023823 -3.236315 0.000000 0.000000 0.000000 -2.414186 -58.177837 -1.351906 -18.332585 -34.973533 -14.664785 24.015440 -9.426898 -3.936317 -11.535111 -5.313859 11.888099 -9.774399 1.941865 1.197239 0.000000 0.000000 0.000000 1.083103 -56.437266 0.724079 11.122632 -4.305403 1.642958 2.099226 -1.823146 -0.525023 0.080398 -1.199166 0.818004 0.000000 0.000000 0.000000 -8.348048 -3.661781 0.610497 -8.213173 -2.172177 -5.747371 11.245904 -16.490385 5.671440 0.000000 0.000000 0.000000 -9.387561 -3.719261 0.259328 -0.801787 1.244951 -6.189106 1.451789 -1.974866 1.253440 6.285130 1.005655 -57.601929 -0.906154 -43.377831 0.640690 0.000000 0.000000 0.000000 -9.670335 -4.065713 0.262042 -1.739544 0.988132 5.381206 -2.343048 -2.938775 -2.986796 5.196532 9.787465 72.074390 0.116220 38.491005 1.555211 0.000000 0.000000 0.000000 
